<?xml version="1.0" encoding="utf-8"?>
<!-- Generator: Adobe Illustrator 26.3.1, SVG Export Plug-In . SVG Version: 6.00 Build 0)  -->
<svg version="1.1" id="Layer_1" xmlns="http://www.w3.org/2000/svg" xmlns:xlink="http://www.w3.org/1999/xlink" x="0px" y="0px"
	 viewBox="0 0 186.6 174.4" style="enable-background:new 0 0 186.6 174.4;" xml:space="preserve">
<style type="text/css">
	.st0{fill:url(#SVGID_1_);}
	.st1{fill:#D02029;}
	.st2{fill:#50B2D8;}
	.st3{fill:url(#SVGID_00000106846561795759859840000013465957750584083612_);}
</style>
<g>
	<linearGradient id="SVGID_1_" gradientUnits="userSpaceOnUse" x1="103.4565" y1="76.3925" x2="119.4095" y2="92.3455">
		<stop  offset="0" style="stop-color:#50B2D8"/>
		<stop  offset="1" style="stop-color:#143A63"/>
	</linearGradient>
	<path class="st0" d="M126.8,92.6l-20.7-20.7c-0.5-0.5-1.2-0.8-1.9-0.8l-9.1,0c-0.9,0-1.7,0.8-1.7,1.7c0,0.5,0.2,0.9,0.5,1.2
		l25.7,25.7L126.8,92.6z"/>
	<path class="st1" d="M98.5,111.9h-6.7c-0.9,0-1.7,0.8-1.7,1.7v16.4c0,0.9,0.8,1.7,1.7,1.7h6.7c0.9,0,1.7-0.8,1.7-1.7v-16.4
		C100.2,112.6,99.4,111.9,98.5,111.9z"/>
	<g>
		<path class="st2" d="M100.8,131.6h-9.1v0c-0.9,0-1.7-0.8-1.7-1.7c0-0.5,0.2-0.9,0.5-1.2l0,0l24.2-24.2l3.8-3.8l0,0
			c4.5-4.5,4.5-11.8,0-16.3l14.1,14.1c0.7,0.7,0.7,1.7,0,2.4l0,0l-29.9,29.9C102.3,131.3,101.6,131.6,100.8,131.6z"/>
	</g>
	<path class="st1" d="M55.6,78.4h6.7c0.9,0,1.7-0.8,1.7-1.7V60.4c0-0.9-0.8-1.7-1.7-1.7h-6.7c-0.9,0-1.7,0.8-1.7,1.7v16.4
		C53.9,77.7,54.6,78.4,55.6,78.4z"/>
	
		<linearGradient id="SVGID_00000091718263945308542690000008976261963105161639_" gradientUnits="userSpaceOnUse" x1="82.9" y1="99.4065" x2="67.031" y2="83.5375">
		<stop  offset="0" style="stop-color:#50B2D8"/>
		<stop  offset="1" style="stop-color:#143A63"/>
	</linearGradient>
	<path style="fill:url(#SVGID_00000091718263945308542690000008976261963105161639_);" d="M85.9,95.2c0.5,0.5,0.8,1.2,0.8,1.9l0,9.1
		c0,0.9-0.8,1.7-1.7,1.7c-0.5,0-0.9-0.2-1.2-0.5L60.4,84l7.2-7.2L85.9,95.2z"/>
	<path class="st2" d="M68.5,92.2c-4.5-4.5-4.5-11.8,0-16.3l20.7-20.7c0.5-0.5,0.8-1.2,0.8-1.9v-9.1c0-0.9-0.8-1.7-1.7-1.7
		c-0.5,0-1,0.3-1.3,0.6L54.3,75.7c-0.7,0.7-0.6,1.6,0.1,2.3L68.5,92.2z"/>
</g>
</svg>
